<svg width="96" height="110" viewBox="0 0 96 110" fill="none" xmlns="http://www.w3.org/2000/svg">
<path d="M42.5803 67.8235V109.118H0.60498C0.60498 98.1662 5.02737 87.6627 12.8993 79.9184C20.7712 72.1742 31.4477 67.8235 42.5803 67.8235ZM42.5803 62.6617C25.1868 62.6617 11.0988 48.8022 11.0988 31.6907C11.0988 14.5792 25.1868 0.719727 42.5803 0.719727C59.9738 0.719727 74.0618 14.5792 74.0618 31.6907C74.0618 48.8022 59.9738 62.6617 42.5803 62.6617ZM89.8025 83.309H95.0494V109.118H53.0741V83.309H58.321V78.1472C58.321 74.0402 59.9794 70.1014 62.9314 67.1973C65.8833 64.2932 69.8871 62.6617 74.0618 62.6617C78.2365 62.6617 82.2402 64.2932 85.1922 67.1973C88.1441 70.1014 89.8025 74.0402 89.8025 78.1472V83.309ZM79.3087 83.309V78.1472C79.3087 76.7782 78.7559 75.4653 77.7719 74.4972C76.7879 73.5292 75.4533 72.9854 74.0618 72.9854C72.6702 72.9854 71.3356 73.5292 70.3516 74.4972C69.3677 75.4653 68.8149 76.7782 68.8149 78.1472V83.309H79.3087Z" fill="#011B1A"/>
</svg>
