<svg width="40" height="40" viewBox="0 0 40 40" fill="none" xmlns="http://www.w3.org/2000/svg">
<g clip-path="url(#clip0_1241_391)">
<rect width="40" height="40" rx="20" fill="#115D5B"/>
<path d="M2 40V35.2383C2 35.2383 11 30.4767 20 30.4767C29 30.4767 38 35.2383 38 35.2383V40H2ZM18.74 9.28736C16.58 0.00214005 5.6 2.14488 5.6 2.14488C5.6 2.14488 5.96 20.7153 16.22 17.8583C15.5 10.9539 12.8 9.04927 12.8 9.04927C17.84 9.04927 18.2 17.1441 18.2 17.1441V28.0959H21.8V18.0964C21.8 18.0964 21.8 8.81119 27.2 6.43037C27.2 6.43037 23.6 13.5728 23.6 18.3345C36.2 20.0011 36.2 -2.85485 36.2 -2.85485C36.2 -2.85485 20.18 -5.23567 18.74 9.28736Z" fill="white"/>
</g>
<defs>
<clipPath id="clip0_1241_391">
<rect width="40" height="40" rx="20" fill="white"/>
</clipPath>
</defs>
</svg>
