<svg width="43" height="42" viewBox="0 0 43 42" fill="none" xmlns="http://www.w3.org/2000/svg">
<path d="M42.5 21C42.5 32.3108 33.1091 41.5 21.5 41.5C9.89086 41.5 0.5 32.3108 0.5 21C0.5 9.68919 9.89086 0.5 21.5 0.5C33.1091 0.5 42.5 9.68919 42.5 21Z" fill="white" stroke="#763A3A"/>
<path d="M34.9826 17.389H33.875V17.3337H21.5V22.667H29.2708C28.1371 25.7717 25.0908 28.0003 21.5 28.0003C16.9439 28.0003 13.25 24.4183 13.25 20.0003C13.25 15.5823 16.9439 12.0003 21.5 12.0003C23.6031 12.0003 25.5164 12.7697 26.9732 14.0263L30.8624 10.255C28.4066 8.03566 25.1217 6.66699 21.5 6.66699C13.9066 6.66699 7.75 12.637 7.75 20.0003C7.75 27.3637 13.9066 33.3337 21.5 33.3337C29.0934 33.3337 35.25 27.3637 35.25 20.0003C35.25 19.1063 35.1551 18.2337 34.9826 17.389Z" fill="#FFC107"/>
<path d="M9.33496 13.7943L13.8525 17.007C15.0749 14.0723 18.0353 12.0003 21.4996 12.0003C23.6026 12.0003 25.516 12.7697 26.9728 14.0263L30.862 10.255C28.4062 8.03566 25.1213 6.66699 21.4996 6.66699C16.2182 6.66699 11.6381 9.55833 9.33496 13.7943Z" fill="#FF3D00"/>
<path d="M21.4997 33.3338C25.0514 33.3338 28.2785 32.0158 30.7184 29.8725L26.4628 26.3805C25.0362 27.4332 23.2924 28.0023 21.4997 28.0005C17.9234 28.0005 14.8867 25.7891 13.7427 22.7031L9.25879 26.0531C11.5344 30.3711 16.1558 33.3338 21.4997 33.3338Z" fill="#4CAF50"/>
<path d="M34.9826 17.3883H33.875V17.333H21.5V22.6663H29.2708C28.7285 24.144 27.7517 25.4351 26.461 26.3803L26.4631 26.379L30.7187 29.871C30.4176 30.1363 35.25 26.6663 35.25 19.9997C35.25 19.1057 35.1551 18.233 34.9826 17.3883Z" fill="#1976D2"/>
</svg>
