<svg width="30" height="30" viewBox="0 0 30 30" fill="none" xmlns="http://www.w3.org/2000/svg">
<path d="M26.25 8.75V23.25C26.25 24.9125 24.9125 26.25 23.25 26.25H6.75C5.0875 26.25 3.75 24.9125 3.75 23.25V8.75M10 13.75H20M3.25 3.75H26.75C27.2804 3.75 27.7891 3.96071 28.1642 4.33579C28.5393 4.71086 28.75 5.21957 28.75 5.75V6.75C28.75 7.01264 28.6983 7.27272 28.5978 7.51537C28.4973 7.75802 28.3499 7.9785 28.1642 8.16421C27.9785 8.34993 27.758 8.49725 27.5154 8.59776C27.2727 8.69827 27.0126 8.75 26.75 8.75H3.25C2.71957 8.75 2.21086 8.53929 1.83579 8.16421C1.46071 7.78914 1.25 7.28043 1.25 6.75V5.75C1.25 5.48736 1.30173 5.22728 1.40224 4.98463C1.50275 4.74198 1.65007 4.5215 1.83579 4.33579C2.21086 3.96071 2.71957 3.75 3.25 3.75Z" stroke="white" stroke-width="1.5" stroke-miterlimit="10" stroke-linecap="round" stroke-linejoin="round"/>
</svg>
