<svg width="47" height="45" viewBox="0 0 47 45" fill="none" xmlns="http://www.w3.org/2000/svg">
<ellipse cx="23.5" cy="22.5" rx="23.5" ry="22.5" fill="#FFC107"/>
<path d="M28.0833 31.4156L23.125 26.6344L24.7583 25.0594L28.0833 28.2656L34.675 21.9094L36.3083 23.4844L28.0833 31.4156ZM34.5 20.25H32.1667V14.625H29.8333V18H18.1667V14.625H15.8333V30.375H22.8333V32.625H15.8333C15.1917 32.625 14.6426 32.4049 14.186 31.9646C13.7294 31.5244 13.5008 30.9945 13.5 30.375V14.625C13.5 14.0062 13.7287 13.4768 14.186 13.0365C14.6433 12.5963 15.1924 12.3758 15.8333 12.375H20.7042C20.9181 11.7188 21.3361 11.1799 21.9583 10.7584C22.5806 10.3369 23.2611 10.1258 24 10.125C24.7778 10.125 25.4731 10.3361 26.086 10.7584C26.6989 11.1806 27.1119 11.7195 27.325 12.375H32.1667C32.8083 12.375 33.3578 12.5955 33.8152 13.0365C34.2725 13.4775 34.5008 14.007 34.5 14.625V20.25ZM24 14.625C24.3306 14.625 24.6078 14.517 24.8318 14.301C25.0558 14.085 25.1674 13.818 25.1667 13.5C25.1659 13.182 25.0539 12.915 24.8307 12.699C24.6074 12.483 24.3306 12.375 24 12.375C23.6694 12.375 23.3926 12.483 23.1693 12.699C22.9461 12.915 22.8341 13.182 22.8333 13.5C22.8326 13.818 22.9446 14.0854 23.1693 14.3021C23.3941 14.5189 23.671 14.6265 24 14.625Z" fill="black"/>
</svg>
