<svg width="41" height="40" viewBox="0 0 41 40" fill="none" xmlns="http://www.w3.org/2000/svg">
<ellipse cx="20.5" cy="20" rx="20.5" ry="20" fill="#A7FFB5"/>
<path d="M29 26V27H11V26L13 24V18C13 14.9 15.03 12.17 18 11.29V11C18 10.4696 18.2107 9.96086 18.5858 9.58579C18.9609 9.21071 19.4696 9 20 9C20.5304 9 21.0391 9.21071 21.4142 9.58579C21.7893 9.96086 22 10.4696 22 11V11.29C24.97 12.17 27 14.9 27 18V24L29 26ZM22 28C22 28.5304 21.7893 29.0391 21.4142 29.4142C21.0391 29.7893 20.5304 30 20 30C19.4696 30 18.9609 29.7893 18.5858 29.4142C18.2107 29.0391 18 28.5304 18 28" fill="#011B1A"/>
</svg>
