<svg width="28" height="24" viewBox="0 0 28 24" fill="none" xmlns="http://www.w3.org/2000/svg">
<path d="M22.1665 3H20.9998C19.7112 3 18.6665 3.89543 18.6665 5V19C18.6665 20.1046 19.7112 21 20.9998 21H22.1665C23.4552 21 24.4998 20.1046 24.4998 19V5C24.4998 3.89543 23.4552 3 22.1665 3Z" fill="black"/>
<path d="M14.5835 9H13.4168C12.1282 9 11.0835 9.89543 11.0835 11V19C11.0835 20.1046 12.1282 21 13.4168 21H14.5835C15.8722 21 16.9168 20.1046 16.9168 19V11C16.9168 9.89543 15.8722 9 14.5835 9Z" fill="black"/>
<path d="M7 16H5.83333C4.54467 16 3.5 16.8954 3.5 18V19C3.5 20.1046 4.54467 21 5.83333 21H7C8.28866 21 9.33333 20.1046 9.33333 19V18C9.33333 16.8954 8.28866 16 7 16Z" fill="black"/>
</svg>
