<svg width="24" height="24" viewBox="0 0 24 24" fill="none" xmlns="http://www.w3.org/2000/svg">
<path d="M21.334 0H20.0007C18.5279 0 17.334 1.19391 17.334 2.66667V21.3333C17.334 22.8061 18.5279 24 20.0007 24H21.334C22.8067 24 24.0007 22.8061 24.0007 21.3333V2.66667C24.0007 1.19391 22.8067 0 21.334 0Z" fill="black"/>
<path d="M12.666 8H11.3327C9.85992 8 8.66602 9.19391 8.66602 10.6667V21.3333C8.66602 22.8061 9.85992 24 11.3327 24H12.666C14.1388 24 15.3327 22.8061 15.3327 21.3333V10.6667C15.3327 9.19391 14.1388 8 12.666 8Z" fill="black"/>
<path d="M4 17.333H2.66667C1.19391 17.333 0 18.5269 0 19.9997V21.333C0 22.8058 1.19391 23.9997 2.66667 23.9997H4C5.47276 23.9997 6.66667 22.8058 6.66667 21.333V19.9997C6.66667 18.5269 5.47276 17.333 4 17.333Z" fill="black"/>
</svg>
