<svg width="46" height="45" viewBox="0 0 46 45" fill="none" xmlns="http://www.w3.org/2000/svg">
<ellipse cx="23" cy="22.5" rx="23" ry="22.5" fill="#A7FFB5"/>
<path d="M27.1939 12.1533C27.9597 11.4149 28.9984 11 30.0814 11C30.6177 11 31.1487 11.1019 31.6441 11.2997C32.1396 11.4976 32.5897 11.7877 32.9689 12.1533C33.3481 12.519 33.6489 12.9531 33.8541 13.4308C34.0593 13.9086 34.165 14.4206 34.165 14.9377C34.165 15.4548 34.0593 15.9668 33.8541 16.4446C33.6489 16.9223 33.3481 17.3564 32.9689 17.7221L25.8989 24.5396C25.4945 24.9294 24.9894 25.2078 24.4359 25.3462L18.9257 26.7232C18.7783 26.76 18.6234 26.7591 18.4764 26.7204C18.3295 26.6818 18.1955 26.6069 18.0878 26.503C17.9801 26.3991 17.9023 26.2699 17.8623 26.1282C17.8222 25.9865 17.8212 25.8372 17.8594 25.695L19.2874 20.3816C19.4312 19.8477 19.7204 19.3607 20.1251 18.9708L27.1939 12.1533ZM25.2176 12.4683C22.9849 11.8915 20.6173 12.0411 18.4818 12.8941C16.3464 13.747 14.5624 15.2556 13.4067 17.1858C12.251 19.1161 11.7881 21.3601 12.0898 23.5699C12.3915 25.7797 13.441 27.8318 15.0754 29.4078C16.7098 30.9838 18.8378 31.9958 21.1295 32.2867C23.4211 32.5776 25.7483 32.1313 27.75 31.0169C29.7517 29.9024 31.3162 28.1822 32.2007 26.123C33.0853 24.0638 33.2405 21.7807 32.6422 19.6278L31.1606 21.0566C31.2189 21.4466 31.2481 21.8445 31.2481 22.2502C31.248 23.97 30.7029 25.6487 29.6858 27.0614C28.6687 28.4742 27.2282 29.5534 25.5573 30.1547C23.8864 30.756 22.0648 30.8506 20.3366 30.4257C18.6084 30.0009 17.056 29.0769 15.8876 27.7777C14.7191 26.4784 13.9903 24.8658 13.7987 23.156C13.6071 21.4461 13.962 19.7207 14.8158 18.2107C15.6695 16.7008 16.9814 15.4785 18.5756 14.7075C20.1699 13.9366 21.9704 13.6538 23.7359 13.8971L25.2176 12.4683Z" fill="#011B1A"/>
</svg>
