<svg width="47" height="45" viewBox="0 0 47 45" fill="none" xmlns="http://www.w3.org/2000/svg">
<ellipse cx="23.5" cy="22.5" rx="23.5" ry="22.5" fill="#FFDE7B"/>
<path d="M20.6673 26.2493L24.1673 27.416C24.1673 27.416 32.9173 25.666 34.084 25.666C35.2507 25.666 35.2507 26.8327 34.084 27.9993C32.9173 29.166 28.834 32.666 25.334 32.666C21.834 32.666 19.5007 30.916 17.1673 30.916H11.334" stroke="black" stroke-width="2" stroke-linecap="round" stroke-linejoin="round"/>
<path d="M11.334 23.9167C12.5007 22.75 14.834 21 17.1673 21C19.5007 21 25.0423 23.3333 25.9173 24.5C26.7923 25.6667 24.1673 27.4167 24.1673 27.4167" stroke="black" stroke-width="2" stroke-linecap="round" stroke-linejoin="round"/>
<path d="M28.834 21.583C29.8005 21.583 30.584 20.7995 30.584 19.833C30.584 18.8665 29.8005 18.083 28.834 18.083C27.8675 18.083 27.084 18.8665 27.084 19.833C27.084 20.7995 27.8675 21.583 28.834 21.583Z" stroke="black" stroke-width="2"/>
<path d="M21.834 17.5C22.8005 17.5 23.584 16.7165 23.584 15.75C23.584 14.7835 22.8005 14 21.834 14C20.8675 14 20.084 14.7835 20.084 15.75C20.084 16.7165 20.8675 17.5 21.834 17.5Z" stroke="black" stroke-width="2"/>
<path d="M28.834 12.833C29.8005 12.833 30.584 12.0495 30.584 11.083C30.584 10.1165 29.8005 9.33301 28.834 9.33301C27.8675 9.33301 27.084 10.1165 27.084 11.083C27.084 12.0495 27.8675 12.833 28.834 12.833Z" stroke="black" stroke-width="2"/>
</svg>
