<svg width="46" height="46" viewBox="0 0 46 46" fill="none" xmlns="http://www.w3.org/2000/svg">
<circle cx="23" cy="23" r="23" fill="#A5D2FF"/>
<path d="M15.1878 34.6435L9.875 29.7465L11.1228 28.3011L16.4113 33.1749L23.6206 25.9626C23.9567 25.627 24.4053 25.4388 24.8726 25.4374C25.3398 25.4359 25.7895 25.6214 26.1275 25.9548L29.525 29.3106L34.7563 23.5242L36.125 24.8466L30.8928 30.6348C30.7238 30.8218 30.5206 30.9722 30.2949 31.0774C30.0693 31.1826 29.8256 31.2405 29.5782 31.2477C29.3307 31.2549 29.0843 31.2113 28.8533 31.1194C28.6222 31.0275 28.4111 30.8891 28.2322 30.7123L24.8787 27.4002L17.6919 34.5883C17.3582 34.9223 16.9146 35.1135 16.4502 35.1235C15.9857 35.1336 15.5348 34.9627 15.1878 34.6435ZM36.125 18.6562H32.375L34.25 15.75L36.125 18.6562ZM28.625 11.875H24.875V13.8125H28.625V15.75H25.8125V17.6875H28.625V19.625H24.875V21.5625H28.625C29.1221 21.5617 29.5985 21.3574 29.95 20.9942C30.3015 20.631 30.4993 20.1386 30.5 19.625V13.8125C30.5 13.2986 30.3025 12.8058 29.9508 12.4425C29.5992 12.0791 29.1223 11.875 28.625 11.875ZM23 21.5625H17.375V17.6875C17.375 17.1736 17.5725 16.6808 17.9242 16.3175C18.2758 15.9541 18.7527 15.75 19.25 15.75H21.125V13.8125H17.375V11.875H21.125C21.6223 11.875 22.0992 12.0791 22.4508 12.4425C22.8025 12.8058 23 13.2986 23 13.8125V15.75C23 16.2639 22.8025 16.7567 22.4508 17.12C22.0992 17.4834 21.6223 17.6875 21.125 17.6875H19.25V19.625H23V21.5625ZM13.625 19.625V11.875H11.75V12.8438H9.875V14.7812H11.75V19.625H9.875V21.5625H15.5V19.625H13.625Z" fill="black"/>
</svg>
