<svg width="55" height="55" viewBox="0 0 55 55" fill="none" xmlns="http://www.w3.org/2000/svg">
<circle cx="27.5" cy="27.5" r="27.5" fill="#A7FFB5"/>
<path d="M40.1065 22C37.9842 17.1435 33.138 13.75 27.5005 13.75C21.863 13.75 17.0162 17.1435 14.8945 22" stroke="black" stroke-width="2" stroke-linecap="round" stroke-linejoin="round"/>
<path d="M27.5 20.625C26.1921 21.9038 25.1533 23.4314 24.4449 25.1178C23.7365 26.8042 23.3727 28.6154 23.375 30.4446C23.375 30.7883 23.3876 31.1293 23.4128 31.4676C24.7094 32.7451 25.7386 34.2681 26.4404 35.9477C27.1421 37.6272 27.5023 39.4297 27.5 41.25C27.4976 39.4296 27.8578 37.627 28.5595 35.9473C29.2613 34.2676 30.2905 32.7445 31.5872 31.4669C31.6124 31.1295 31.625 30.7888 31.625 30.4446C31.6273 28.6154 31.2636 26.8042 30.5551 25.1178C29.8467 23.4314 28.8079 21.9038 27.5 20.625Z" fill="black" stroke="black" stroke-width="2" stroke-linecap="round" stroke-linejoin="round"/>
<path d="M13.75 27.5C13.75 35.0941 19.9059 41.25 27.5 41.25C27.5024 39.4296 27.1422 37.627 26.4405 35.9473C25.7388 34.2676 24.7095 32.7445 23.4128 31.4669C20.8416 28.9212 17.3682 27.4953 13.75 27.5Z" fill="black" stroke="black" stroke-width="2" stroke-linecap="round" stroke-linejoin="round"/>
<path d="M41.25 27.5C41.25 35.0941 35.0941 41.25 27.5 41.25C27.4976 39.4296 27.8578 37.627 28.5595 35.9473C29.2613 34.2676 30.2905 32.7445 31.5872 31.4669C34.1584 28.9212 37.6318 27.4953 41.25 27.5Z" fill="black" stroke="black" stroke-width="2" stroke-linecap="round" stroke-linejoin="round"/>
</svg>
