<svg width="66" height="73" viewBox="0 0 66 73" fill="none" xmlns="http://www.w3.org/2000/svg">
<path d="M0 73V64.9163C0 64.9163 16.5 56.8325 33 56.8325C49.5 56.8325 66 64.9163 66 64.9163V73H0ZM30.69 20.8599C26.73 5.09666 6.6 8.73433 6.6 8.73433C6.6 8.73433 7.26 40.2609 26.07 35.4106C24.75 23.6892 19.8 20.4557 19.8 20.4557C29.04 20.4557 29.7 34.1981 29.7 34.1981V52.7907H36.3V35.8148C36.3 35.8148 36.3 20.0516 46.2 16.0097C46.2 16.0097 39.6 28.1353 39.6 36.219C62.7 39.0483 62.7 0.246418 62.7 0.246418C62.7 0.246418 33.33 -3.79545 30.69 20.8599Z" fill="#EDFFFF"/>
</svg>
