<svg width="22" height="15" viewBox="0 0 22 15" fill="none" xmlns="http://www.w3.org/2000/svg">
<path d="M11.0862 4.49707C10.2969 4.49707 9.5398 4.81314 8.98162 5.37575C8.42344 5.93836 8.10986 6.70142 8.10986 7.49707C8.10986 8.29272 8.42344 9.05578 8.98162 9.61839C9.5398 10.181 10.2969 10.4971 11.0862 10.4971C11.8756 10.4971 12.6327 10.181 13.1909 9.61839C13.749 9.05578 14.0626 8.29272 14.0626 7.49707C14.0626 6.70142 13.749 5.93836 13.1909 5.37575C12.6327 4.81314 11.8756 4.49707 11.0862 4.49707ZM11.0862 12.4971C9.7706 12.4971 8.50884 11.9703 7.57855 11.0326C6.64825 10.0949 6.12561 8.82315 6.12561 7.49707C6.12561 6.17099 6.64825 4.89922 7.57855 3.96154C8.50884 3.02385 9.7706 2.49707 11.0862 2.49707C12.4019 2.49707 13.6636 3.02385 14.5939 3.96154C15.5242 4.89922 16.0469 6.17099 16.0469 7.49707C16.0469 8.82315 15.5242 10.0949 14.5939 11.0326C13.6636 11.9703 12.4019 12.4971 11.0862 12.4971ZM11.0862 -0.00292969C6.12561 -0.00292969 1.88923 3.10707 0.172852 7.49707C1.88923 11.8871 6.12561 14.9971 11.0862 14.9971C16.0469 14.9971 20.2833 11.8871 21.9996 7.49707C20.2833 3.10707 16.0469 -0.00292969 11.0862 -0.00292969Z" fill="#555555"/>
</svg>
