<svg width="55" height="55" viewBox="0 0 55 55" fill="none" xmlns="http://www.w3.org/2000/svg">
<circle cx="27.5" cy="27.5" r="27.5" fill="#B57CFF"/>
<path d="M27.5 23.375C26.406 23.375 25.3568 23.8096 24.5832 24.5832C23.8096 25.3568 23.375 26.406 23.375 27.5C23.375 28.594 23.8096 29.6432 24.5832 30.4168C25.3568 31.1904 26.406 31.625 27.5 31.625C28.594 31.625 29.6432 31.1904 30.4168 30.4168C31.1904 29.6432 31.625 28.594 31.625 27.5C31.625 26.406 31.1904 25.3568 30.4168 24.5832C29.6432 23.8096 28.594 23.375 27.5 23.375ZM27.5 34.375C25.6766 34.375 23.928 33.6507 22.6386 32.3614C21.3493 31.072 20.625 29.3234 20.625 27.5C20.625 25.6766 21.3493 23.928 22.6386 22.6386C23.928 21.3493 25.6766 20.625 27.5 20.625C29.3234 20.625 31.072 21.3493 32.3614 22.6386C33.6507 23.928 34.375 25.6766 34.375 27.5C34.375 29.3234 33.6507 31.072 32.3614 32.3614C31.072 33.6507 29.3234 34.375 27.5 34.375ZM27.5 17.1875C20.625 17.1875 14.7538 21.4638 12.375 27.5C14.7538 33.5362 20.625 37.8125 27.5 37.8125C34.375 37.8125 40.2463 33.5362 42.625 27.5C40.2463 21.4638 34.375 17.1875 27.5 17.1875Z" fill="black"/>
</svg>
